<mxfile host="app.diagrams.net" modified="2023-10-02T00:09:36.570Z" agent="Mozilla/5.0 (Windows NT 10.0; Win64; x64) AppleWebKit/537.36 (KHTML, like Gecko) Chrome/117.0.0.0 Safari/537.36" etag="PzRtZqj_f7ZhPe0WuQ5x" version="21.2.4" type="device">
  <diagram name="Page-1" id="Kr1rYN9Z7N7GSEPf8ET3">
    <mxGraphModel dx="610" dy="1180" grid="1" gridSize="10" guides="1" tooltips="1" connect="1" arrows="1" fold="1" page="1" pageScale="1" pageWidth="850" pageHeight="1100" math="0" shadow="0">
      <root>
        <mxCell id="0" />
        <mxCell id="1" parent="0" />
        <mxCell id="UlLnrSHuyfen1mGujvux-2" value="User" style="rounded=0;whiteSpace=wrap;html=1;" vertex="1" parent="1">
          <mxGeometry x="40" y="410" width="90" height="40" as="geometry" />
        </mxCell>
        <mxCell id="UlLnrSHuyfen1mGujvux-8" style="edgeStyle=orthogonalEdgeStyle;rounded=0;orthogonalLoop=1;jettySize=auto;html=1;entryX=0.622;entryY=1.039;entryDx=0;entryDy=0;entryPerimeter=0;" edge="1" parent="1" source="UlLnrSHuyfen1mGujvux-3" target="UlLnrSHuyfen1mGujvux-5">
          <mxGeometry relative="1" as="geometry">
            <Array as="points">
              <mxPoint x="365" y="360" />
              <mxPoint x="365" y="360" />
            </Array>
          </mxGeometry>
        </mxCell>
        <mxCell id="UlLnrSHuyfen1mGujvux-3" value="FinAPP" style="ellipse;whiteSpace=wrap;html=1;" vertex="1" parent="1">
          <mxGeometry x="300" y="390" width="100" height="80" as="geometry" />
        </mxCell>
        <mxCell id="UlLnrSHuyfen1mGujvux-6" style="edgeStyle=orthogonalEdgeStyle;rounded=0;orthogonalLoop=1;jettySize=auto;html=1;entryX=0.5;entryY=0;entryDx=0;entryDy=0;" edge="1" parent="1" source="UlLnrSHuyfen1mGujvux-5" target="UlLnrSHuyfen1mGujvux-3">
          <mxGeometry relative="1" as="geometry" />
        </mxCell>
        <mxCell id="UlLnrSHuyfen1mGujvux-5" value="Plaid API" style="rounded=0;whiteSpace=wrap;html=1;" vertex="1" parent="1">
          <mxGeometry x="290" y="200" width="120" height="60" as="geometry" />
        </mxCell>
        <mxCell id="UlLnrSHuyfen1mGujvux-9" value="Transaction and historical data requests" style="text;html=1;strokeColor=none;fillColor=none;align=center;verticalAlign=middle;whiteSpace=wrap;rounded=0;" vertex="1" parent="1">
          <mxGeometry x="350" y="280" width="200" height="30" as="geometry" />
        </mxCell>
        <mxCell id="UlLnrSHuyfen1mGujvux-10" value="Transaction and historical data resonses" style="text;html=1;strokeColor=none;fillColor=none;align=center;verticalAlign=middle;whiteSpace=wrap;rounded=0;" vertex="1" parent="1">
          <mxGeometry x="170" y="340" width="200" height="30" as="geometry" />
        </mxCell>
        <mxCell id="UlLnrSHuyfen1mGujvux-11" value="" style="endArrow=classic;html=1;rounded=0;entryX=0;entryY=0.5;entryDx=0;entryDy=0;exitX=1;exitY=0.5;exitDx=0;exitDy=0;" edge="1" parent="1" source="UlLnrSHuyfen1mGujvux-2" target="UlLnrSHuyfen1mGujvux-3">
          <mxGeometry width="50" height="50" relative="1" as="geometry">
            <mxPoint x="240" y="430" as="sourcePoint" />
            <mxPoint x="280" y="380" as="targetPoint" />
          </mxGeometry>
        </mxCell>
        <mxCell id="UlLnrSHuyfen1mGujvux-12" value="User credientials" style="text;html=1;strokeColor=none;fillColor=none;align=center;verticalAlign=middle;whiteSpace=wrap;rounded=0;" vertex="1" parent="1">
          <mxGeometry x="220" y="430" width="60" height="30" as="geometry" />
        </mxCell>
        <mxCell id="UlLnrSHuyfen1mGujvux-14" value="" style="endArrow=classic;html=1;rounded=0;entryX=1;entryY=0.25;entryDx=0;entryDy=0;" edge="1" parent="1" target="UlLnrSHuyfen1mGujvux-2">
          <mxGeometry width="50" height="50" relative="1" as="geometry">
            <mxPoint x="300" y="420" as="sourcePoint" />
            <mxPoint x="280" y="370" as="targetPoint" />
          </mxGeometry>
        </mxCell>
        <mxCell id="UlLnrSHuyfen1mGujvux-16" value="Charts and Figures" style="text;html=1;strokeColor=none;fillColor=none;align=center;verticalAlign=middle;whiteSpace=wrap;rounded=0;" vertex="1" parent="1">
          <mxGeometry x="140" y="390" width="70" height="25" as="geometry" />
        </mxCell>
        <mxCell id="UlLnrSHuyfen1mGujvux-17" value="" style="endArrow=classic;startArrow=classic;html=1;rounded=0;exitX=1;exitY=0.5;exitDx=0;exitDy=0;" edge="1" parent="1" source="UlLnrSHuyfen1mGujvux-3">
          <mxGeometry width="50" height="50" relative="1" as="geometry">
            <mxPoint x="410" y="410" as="sourcePoint" />
            <mxPoint x="510" y="430" as="targetPoint" />
          </mxGeometry>
        </mxCell>
        <mxCell id="UlLnrSHuyfen1mGujvux-18" value="User credentials and settings" style="text;html=1;strokeColor=none;fillColor=none;align=center;verticalAlign=middle;whiteSpace=wrap;rounded=0;" vertex="1" parent="1">
          <mxGeometry x="420" y="390" width="90" height="30" as="geometry" />
        </mxCell>
        <mxCell id="UlLnrSHuyfen1mGujvux-20" value="SQLite Database" style="rounded=0;whiteSpace=wrap;html=1;" vertex="1" parent="1">
          <mxGeometry x="510" y="415" width="120" height="30" as="geometry" />
        </mxCell>
      </root>
    </mxGraphModel>
  </diagram>
</mxfile>
